<?xml version="1.0" encoding="utf-8"?>
<!-- Generator: Adobe Illustrator 27.5.0, SVG Export Plug-In . SVG Version: 6.00 Build 0)  -->
<svg version="1.1" xmlns="http://www.w3.org/2000/svg" xmlns:xlink="http://www.w3.org/1999/xlink" x="0px" y="0px"
	 viewBox="0 0 500 500" style="enable-background:new 0 0 500 500;" xml:space="preserve">
<g id="BACKGROUND">
	<g>
		<rect x="223.751" y="29.4" style="fill:#F7F0DD;" width="40.517" height="87.396"/>
		<rect x="277.292" y="64.044" style="fill:#F7F0DD;" width="40.517" height="87.396"/>
		<rect x="35.371" y="77.004" style="fill:#F7F0DD;" width="40.517" height="87.396"/>
	</g>
</g>
<g id="OBJECTS">
	<polygon style="fill:#E8E1CF;" points="410.552,465.267 202.084,465.267 220.446,453.472 423.95,453.472 	"/>
	<polygon style="fill:#E8E1CF;" points="319.304,439.655 434.797,439.655 451.093,425.089 342.507,425.089 	"/>
	<g>
		<g>
			<path style="fill:#468759;" d="M100.625,253.903c-4.013,1.245-7.583,3.379-10.753,6.149c-1.404,3.534-2.548,7.314-2.548,7.314
				l-0.23-4.622c-0.281,0.301-0.559,0.604-0.833,0.915c-0.581,3.147-0.987,6.261-0.987,6.261l-0.46-4.522
				c-15.877,20.001-18.679,57.141-15.436,63.291c4.116,7.807,11.318,5.289,11.318,5.289c9.247-0.277,11.216-18.523,13.725-33.767
				c-2.038,1.161-3.618,2.19-3.618,2.19l4.441-6.894c0.869-4.614,1.879-8.693,3.288-11.539
				C104.793,271.316,130.369,244.673,100.625,253.903z"/>
			<path style="fill:none;stroke:#80B068;stroke-miterlimit:10;" d="M78.484,354.361c0,0-6.214-19.532,0.915-50.38
				c7.129-30.848,17.218-39.27,21.359-40.392"/>
		</g>
		<path style="fill:#80B068;" d="M131.507,289.418c-4.966,0.464-9.615,1.884-13.94,4.004c-2.434,3.205-4.621,6.699-4.621,6.699
			l0.772-4.582c-0.396,0.242-0.789,0.487-1.178,0.741c-1.387,2.98-2.562,5.961-2.562,5.961l0.48-4.527
			c-23.041,16.636-34.669,52.575-32.267,59.228c3.05,8.445,12.027,7.335,12.027,7.335c10.861,1.477,17.266-16.066,23.625-30.561
			c-2.642,0.755-4.718,1.466-4.718,1.466l6.737-5.929c2.053-4.366,4.15-8.18,6.435-10.708
			C132.456,307.306,168.32,285.982,131.507,289.418z"/>
		<path style="fill:none;stroke:#468759;stroke-miterlimit:10;" d="M83.049,383.874c0,0-2.862-20.355,12.404-49.297
			c15.266-28.942,28.942-35.303,34.031-35.621"/>
		<g>
			<path style="fill:#468759;" d="M40.682,224.972c0,0-1.694,6.593,6.083,33.893c7.777,27.3,9.964,16.412,10.637,51.861
				l0.313-52.984L40.682,224.972z"/>
			<path style="fill:#80B068;" d="M76.811,299.823c-0.424-9.686-3.502-10.528-6.207-22.635c-0.288-1.287-0.518-2.479-0.71-3.604
				l-2.825,4.021l2.314-7.682c-1.073-10.162,1.559-13.519-2.18-23.929c-0.682-1.9-1.437-3.615-2.23-5.197l-1.426,5.902l-0.816-9.846
				c-4.121-6.394-8.682-9.478-10.729-10.679c-2.366-1.388-8.231-4.849-10.546-2.844c-2.714,2.352,1.911,10.762,7.47,25.97l0,0
				c4.085,11.535,7.605,20.871,8.126,26.313c2.392,24.966-3.425,33.934,3.861,42.132c0.64,0.72,4.96,5.462,8.86,4.468
				C75.349,320.794,77.186,308.392,76.811,299.823z"/>
			<path style="fill:none;stroke:#468759;stroke-miterlimit:10;" d="M50.876,233.439c0,0,8.866,4.137,12.063,28.373
				c3.197,24.236,8.536,75.999,8.536,75.999"/>
		</g>
		<g>
			<path style="fill:#468759;" d="M41.591,291.706c4.117,0.838,7.882,2.605,11.313,5.044c1.75,3.376,3.266,7.022,3.266,7.022
				l-0.233-4.621c0.309,0.271,0.617,0.545,0.92,0.827c0.892,3.073,1.608,6.131,1.608,6.131l0.006-4.545
				c17.794,18.315,24.291,54.99,21.679,61.434c-3.315,8.179-10.734,6.393-10.734,6.393c-9.228,0.647-13.01-17.31-17.028-32.228
				c2.144,0.952,3.819,1.818,3.819,1.818l-5.107-6.416c-1.326-4.504-2.737-8.462-4.423-11.153
				C39.182,309.449,11.073,285.493,41.591,291.706z"/>
			<path style="fill:none;stroke:#80B068;stroke-miterlimit:10;" d="M73.651,389.452c0,0,4.233-20.055-5.941-50.037
				c-10.174-29.982-21.053-37.354-25.286-38.057"/>
		</g>
		<g>
			<polygon style="fill:#C4B99E;" points="89.419,438.896 63.361,438.896 58.35,376.758 94.429,376.758 			"/>
			
				<line style="fill:none;stroke:#468759;stroke-width:0.5;stroke-miterlimit:10;" x1="59.101" y1="384.442" x2="93.594" y2="384.442"/>
		</g>
	</g>
	<g>
		<path style="fill:#FFBD8F;" d="M181.169,167.675l-0.53,37.89c0.064,1.074,1.01,1.871,2.079,1.752
			c4.87-0.543,40.555-5.228,50.536-20.278l-5.386-4.277l-33.268,6.812l0.317-22.654L181.169,167.675z"/>
		<path style="fill:#7692C7;" d="M223.53,183.57l-2.34,0.63c0,0-2.07,6.66,5.85,9.18l4.917-4.36l-5.097-6.89L223.53,183.57z"/>
		<path style="fill:#615B4E;" d="M133.603,219.772c0,0,14.519,72.763,45.534,125.613c0,0-4.34,31.283,20.294,101.463l9.2-1.506
			c0,0-5.26-71.485-4.368-81.347c0.892-9.862,5.33-14.195,2.907-20.38c-2.424-6.185-24.068-105.72-31.366-120.3L133.603,219.772z"/>
		<path style="fill:#615B4E;" d="M154.097,219.704c-22.253,0.643-36.541,1.456-36.541,1.456
			c-16.767,32.195,14.964,125.457,14.964,125.457c-7.394,53.294,17.484,100.113,17.484,100.113l9.952-0.315l-6.21-84.199l3.65-7.307
			c1.529-3.061,2.218-6.472,1.998-9.887L154.097,219.704z"/>
		<path style="fill:#52415E;" d="M133.603,219.772c0,0,0.045,0.225,0.13,0.636c1.594-0.064,3.288-0.131,5.082-0.198L133.603,219.772
			z"/>
		<path style="opacity:0.45;fill:#52415E;" d="M117.556,221.16c-14.016,26.913,5.855,96.487,12.753,118.595
			c7.781,0.11,18.026-0.092,28.808-1.26l-1.636-38.718c-14.972-38.325-22.686-74.248-23.748-79.37
			C123.521,220.821,117.556,221.16,117.556,221.16z"/>
		<path style="fill:#52415E;" d="M154.097,219.704c-5.641,0.163-10.767,0.337-15.281,0.505l15.357,1.289L154.097,219.704z"/>
		<path style="opacity:0.45;fill:#52415E;" d="M175.804,223.315l-21.631-1.816l3.308,78.278
			c4.772,12.216,10.282,24.671,16.548,36.452c10.432-2.1,20.543-5.365,28.623-10.378C195.29,295.01,181.372,234.439,175.804,223.315
			z"/>
		<g>
			<path style="fill:#FFBD8F;" d="M169.047,121.7c-2.783-0.879-4.851-3.23-5.398-6.097c-1.338-7.009-2.383-14.257-0.458-19.786
				l-19.232-24.985c0,0,0.619,20.592-0.281,40.374c-0.294,6.445-3.783,8.899-6.845,8.69c0,0,6.881,33.803,30.369,19.075
				c0.101-0.059,0.199-0.125,0.295-0.193C172.2,135.753,173.795,123.198,169.047,121.7z"/>
		</g>
		<path style="opacity:0.35;fill:#52415E;" d="M162.4,107.636c-0.454-4.29-0.405-8.386,0.79-11.819l-19.232-24.985
			c0,0,0.576,19.175-0.193,38.293c2.49,2.57,8.147,4.974,11.633,4.754C159.881,113.598,160.302,110.585,162.4,107.636z"/>
		<g>
			<g>
				<path style="fill:#3B3830;" d="M150.004,446.73c0,0-8.23,7.433-13.284,8.694c-5.055,1.261-10.489,5.179-8.754,7.802
					c1.735,2.623,32.656,1.052,32.656,1.052l-0.615-18.023L150.004,446.73z"/>
			</g>
		</g>
		<path style="fill:#615B4E;" d="M121.964,136.029l14.869-16.132c0,0,18.056,6.212,28.618-0.562l16.634,12.416l-0.216,56.651
			l9.182,32.673c0,0-54.445,4.726-73.494,0.086l14.151-41.17L121.964,136.029z"/>
		<path style="opacity:0.45;fill:#52415E;" d="M129.989,172.237l1.581,7.133l2.23,5.37l7.02-5.94l-3.42-34.38
			C137.4,144.42,135.178,166.954,129.989,172.237z"/>
		<g>
			<path style="fill:#615B4E;" d="M165.45,119.335c0,0,18.385-0.738,25.189,21.208c7.367,23.763,4.99,32.08,4.99,32.08
				l-15.542,0.686L165.45,119.335z"/>
		</g>
		<path style="fill:#3B3830;" d="M199.075,446.017c0,0-1.578,10.827,0.128,16.48c0,0,18.632,1.7,30.437,1.22
			c11.805-0.48,10.295-5.63-21.297-19.838L199.075,446.017z"/>
		<path style="fill:#E06B43;" d="M123.878,202.895c0,0-26.161,37.74-1.24,127.961c0,0,58.81,5.26,87.962-14.229
			c0,0-11.806-78.91-25.077-115.451C185.523,201.176,155.312,216.483,123.878,202.895z"/>
		<path style="fill:#E06B43;" d="M137.085,143.475c0,0,32.985,4.275,37.635-4.095c0,0,3.087,34.511,7.364,47.026l0.594,4.753
			l2.844,10.017c0,0-29.869,19.633-61.645,1.719l7.829-22.905C131.707,179.99,138.273,187.437,137.085,143.475z"/>
		<path style="fill:none;stroke:#3B3830;stroke-width:0.75;stroke-miterlimit:10;" d="M153.746,362.216c0,0-3.623,5.621-5.88,5.977"
			/>
		<path style="fill:none;stroke:#3B3830;stroke-width:0.75;stroke-miterlimit:10;" d="M179.138,345.386c0,0,1.402,2.015,5.204,3.322
			"/>
		<line style="fill:none;stroke:#3B3830;stroke-miterlimit:10;" x1="181.847" y1="173.218" x2="179.946" y2="159.316"/>
		<path style="fill:none;stroke:#E06B43;stroke-miterlimit:10;" d="M137.648,145.098"/>
		<path style="fill:none;stroke:#E06B43;stroke-miterlimit:10;" d="M131.232,120.939"/>
		<path style="fill:none;stroke:#E06B43;stroke-miterlimit:10;" d="M166.876,119.216c0,0,8.713,13.406,7.762,25.525"/>
		<path style="fill:#E06B43;" d="M174.599,139.593c0,0,4.871,14.02,9.624,24.476c1.783,3.923-1.505,12.832-5.465,13.624
			C174.797,178.485,174.599,139.593,174.599,139.593z"/>
		<path style="fill:none;stroke:#C24E3A;stroke-width:0.5;stroke-miterlimit:10;" d="M179.946,177.614
			c0,0-25.664,10.456-35.407-2.139"/>
		<path style="fill:#FFBD8F;" d="M110.32,172.148l-1.36,17.812c0,0,12.292,19.012,31.453,18.412l-0.904-6.769
			c0,0-9.753-5.386-14.317-13.234l1.443-18.403L110.32,172.148z"/>
		<g>
			<path style="fill:#FFBD8F;" d="M140.413,208.372c0,0,4.732-10.679,4.039-10.991c-0.694-0.312-11.037,1.952-11.037,1.952
				l1.801,5.105L140.413,208.372z"/>
		</g>
		<g>
			<path style="fill:#615B4E;" d="M136.833,119.897c0,0-12.703-1.977-20.334,19.696c-8.799,24.987-7.129,36.357-7.129,36.357
				l17.59,1.77L136.833,119.897z"/>
		</g>
		
			<line style="fill:none;stroke:#3B3830;stroke-width:0.5;stroke-miterlimit:10;" x1="128.58" y1="166.02" x2="128.38" y2="153.613"/>
		<path style="fill:none;stroke:#E06B43;stroke-miterlimit:10;" d="M131.232,120.939c0,0,5.941,9.109,6.416,24.159"/>
		<path style="fill:none;stroke:#C27154;stroke-width:0.5;stroke-miterlimit:10;" d="M194.6,189.574c0,0-6.337,5.07-5.862,10.297"/>
		<g>
			<g>
				<path style="fill:#7692C7;" d="M231.957,189.02c0,0,10.124-9.054,9.534-9.704c-0.589-0.65-12.343-9.247-12.343-9.247
					l-1.795,13.248L231.957,189.02z"/>
				<g>
					<g>
						<path style="fill:#FFBD8F;" d="M249.566,167.492c0,0-1.238-3.044-7.462-2.736c-6.225,0.309-5.106,1.802-1.195,4.16
							C244.821,171.275,249.777,173.624,249.566,167.492z"/>
						<path style="fill:#FFBD8F;" d="M247.535,170.245c0,0-5.316-2.089-7.422-1.345c-6.214,2.194-5.44,4.199-0.956,5.416
							C243.641,175.533,248.467,179.626,247.535,170.245z"/>
						<path style="fill:#7692C7;" d="M244.683,174.722c0,0-1.005-3.797-6.894-0.336c-5.889,3.46-6.478,5.682-1.634,5.534
							C240.999,179.771,244.532,181.074,244.683,174.722z"/>
						<path style="fill:#7692C7;" d="M242.14,180.219c0,0-0.057-2.75-4.636-1.368c-4.579,1.382-5.348,2.796-2.027,3.496
							C238.798,183.046,240.987,184.517,242.14,180.219z"/>
					</g>
					<path style="fill:#332C32;" d="M246.995,167.925c-1.281-0.333-2.513-0.702-3.763-1.008c-1.251-0.314-2.492-0.553-3.81-0.68
						c0.642-0.173,1.315-0.21,1.981-0.187c0.666,0.029,1.324,0.143,1.971,0.294C244.655,166.681,245.901,167.171,246.995,167.925z"
						/>
					<path style="fill:#332C32;" d="M244.648,173.029c-1.156-0.2-2.261-0.454-3.377-0.66c-1.117-0.214-2.217-0.371-3.388-0.447
						c0.556-0.198,1.15-0.269,1.74-0.288c0.591-0.014,1.178,0.055,1.757,0.154C242.528,172.023,243.653,172.398,244.648,173.029z"/>
					<path style="fill:#332C32;" d="M242.019,177.063c-1.141,0.181-2.252,0.281-3.36,0.425c-1.112,0.135-2.191,0.307-3.315,0.569
						c0.465-0.349,1.002-0.587,1.55-0.778c0.55-0.188,1.12-0.297,1.691-0.378C239.73,176.777,240.893,176.783,242.019,177.063z"/>
					<g>
						<path style="fill:#615B4E;" d="M236.053,178.069c-3.085,0-5.595-2.51-5.595-5.595c0-3.086,2.511-5.595,5.595-5.595
							c3.085,0,5.595,2.51,5.595,5.595C241.649,175.559,239.138,178.069,236.053,178.069z M236.053,168.604
							c-2.135,0-3.871,1.737-3.871,3.871c0,2.134,1.736,3.87,3.871,3.87s3.871-1.736,3.871-3.87
							C239.924,170.34,238.188,168.604,236.053,168.604z"/>
						<g>
							<path style="fill:#615B4E;" d="M265.009,166.533c0.273,1.036,0.245,2.008,0.245,3.122c0,7.485-6.531,13.553-14.587,13.553
								c-8.056,0-14.587-6.068-14.587-13.553c0-1.194-0.075-2.048,0.237-3.151"/>
							<path style="fill:#BD885E;" d="M265.047,166.668c0,1.428-6.438,2.586-14.38,2.586c-7.942,0-14.38-1.158-14.38-2.586
								c0-1.428,6.438-2.586,14.38-2.586C258.609,164.081,265.047,165.24,265.047,166.668z"/>
							<path style="fill:#615B4E;" d="M236.832,167.366c1.696-1.089,7.24-1.888,13.835-1.888c6.594,0,12.139,0.799,13.835,1.888
								c0.346-0.223,0.545-0.456,0.545-0.698c0-1.428-6.438-2.586-14.38-2.586c-7.942,0-14.38,1.158-14.38,2.586
								C236.287,166.91,236.485,167.144,236.832,167.366z"/>
						</g>
						<g>
							<path style="fill:#7D7665;" d="M263.081,169.345c0.223,1.393,0.092,2.858-0.346,4.231c-0.431,1.374-1.143,2.687-2.128,3.766
								c-0.999,1.053-2.154,1.98-3.476,2.558c-0.628,0.352-1.339,0.509-2.002,0.753c-0.695,0.154-1.391,0.287-2.084,0.383
								c0.638-0.316,1.294-0.539,1.914-0.843l0.914-0.477c0.307-0.151,0.611-0.302,0.887-0.502c0.284-0.187,0.568-0.369,0.856-0.543
								c0.275-0.194,0.528-0.417,0.792-0.622l0.397-0.307l0.358-0.35c0.23-0.241,0.496-0.449,0.698-0.714
								c0.915-0.972,1.595-2.14,2.144-3.368C262.534,172.068,262.916,170.74,263.081,169.345z"/>
						</g>
					</g>
					<path style="fill:#7692C7;" d="M223.011,185.339c0.288,1.443,2.97-17.721,7.385-19.092c4.396-1.365,6.153,7.059,6.695,9.134
						c0.542,2.075-4.177,0.12-6.519-3.029c0,0,1.361,13.79-2.064,12.12C225.083,182.803,223.011,185.339,223.011,185.339z"/>
				</g>
				<path style="fill:none;stroke:#544D94;stroke-width:0.5;stroke-miterlimit:10;" d="M238.071,182.949
					c0,0-3.569-0.698-4.733-2.242c-1.072-1.421,4.423-2.181,4.423-2.181"/>
			</g>
			<path style="fill:none;stroke:#544D94;stroke-width:0.5;stroke-miterlimit:10;" d="M223.551,184.624c0,0,5.743,2.02,7.169-1.545"
				/>
			<path style="fill:none;stroke:#544D94;stroke-width:0.5;stroke-miterlimit:10;" d="M230.402,171.039c0,0,1.584,7.287,1.109,9.188
				"/>
		</g>
		<path style="fill:none;stroke:#C27154;stroke-width:0.5;stroke-miterlimit:10;" d="M125.192,188.37c0,0-2.634-0.3-4.654,0.65"/>
		<g>
			<g>
				<g>
					<path style="fill:#615B4E;" d="M238.775,201.271c-0.145-5.248-30.323-8.674-67.406-7.653
						c-37.083,1.021-67.028,6.103-66.883,11.351c0.019,0.693,0.092,3.345,0.111,4.038c0.145,5.248,30.323,8.674,67.406,7.653
						c37.083-1.021,67.027-6.103,66.883-11.351C238.867,204.616,238.794,201.964,238.775,201.271z"/>
				</g>
				<g>
					
						<ellipse transform="matrix(0.9996 -0.0275 0.0275 0.9996 -5.5261 4.8013)" style="fill:#9C927E;" cx="171.631" cy="203.12" rx="67.17" ry="9.505"/>
				</g>
				<g>
					<path style="fill:#877F6D;" d="M236.34,201.338c0.127,4.594-28.742,9.117-64.481,10.101
						c-35.738,0.984-64.812-1.942-64.939-6.537c-0.127-4.594,28.743-9.117,64.481-10.101
						C207.14,193.817,236.214,196.744,236.34,201.338z"/>
				</g>
			</g>
			<g>
				<g>
					<path style="fill:#736C5D;" d="M160.442,204.628c-0.009,1.312-5.92,2.337-13.204,2.288c-7.284-0.049-13.181-1.152-13.172-2.464
						c0.009-1.312,5.92-2.337,13.204-2.288C154.553,202.213,160.45,203.316,160.442,204.628z"/>
				</g>
				<g>
					<path style="fill:#FFFFFF;" d="M133.958,200.59c-3.085-0.021-5.579-2.547-5.558-5.632c0.021-3.086,2.548-5.579,5.633-5.558
						c3.085,0.021,5.579,2.547,5.558,5.633C139.57,198.118,137.042,200.611,133.958,200.59z M134.021,191.124
						c-2.135-0.014-3.883,1.711-3.897,3.845c-0.014,2.134,1.71,3.882,3.845,3.896c2.135,0.014,3.883-1.71,3.897-3.844
						C137.88,192.887,136.156,191.139,134.021,191.124z"/>
					<g>
						<path style="fill:#FFFFFF;" d="M162.99,189.247c0.266,1.038,0.231,2.009,0.224,3.124c-0.05,7.485-6.621,13.509-14.677,13.455
							c-8.056-0.054-14.546-6.165-14.496-13.65c0.008-1.194-0.061-2.049,0.258-3.15"/>
						<path style="fill:#BD885E;" d="M163.027,189.382c-0.01,1.428-6.455,2.543-14.397,2.49c-7.942-0.053-14.372-1.254-14.363-2.682
							c0.01-1.428,6.455-2.543,14.397-2.49C156.606,186.753,163.036,187.954,163.027,189.382z"/>
						<path style="fill:#FFFFFF;" d="M134.808,189.892c1.703-1.077,7.253-1.84,13.847-1.796c6.594,0.044,12.133,0.88,13.822,1.98
							c0.348-0.22,0.548-0.452,0.55-0.695c0.009-1.428-6.421-2.629-14.363-2.682c-7.942-0.053-14.388,1.062-14.397,2.49
							C134.265,189.433,134.463,189.667,134.808,189.892z"/>
					</g>
				</g>
				<path style="opacity:0.5;fill:#FFFFFF;" d="M150.668,184.905c0,0-8.201-3.143-5.291-6.286c2.91-3.143,8.069-2.095,5.688-7.124
					c0,0,7.672,1.676,5.688,4.61c-1.984,2.933-9.774,1.697-8.995,4.557C148.485,183.333,150.668,184.905,150.668,184.905z"/>
			</g>
		</g>
		<path style="fill:none;stroke:#C24E3A;stroke-width:0.75;stroke-miterlimit:10;" d="M135.826,220.783
			c0,0-5.703,83.646,27.882,95.686"/>
		<path style="fill:none;stroke:#C24E3A;stroke-width:0.75;stroke-miterlimit:10;" d="M190.956,241.695
			c0,0,7.604,50.694-6.971,64.002"/>
		<path style="fill:none;stroke:#C24E3A;stroke-width:0.75;stroke-miterlimit:10;" d="M177.332,222.051
			c0,0,3.507,45.094-8.017,50.105c-11.524,5.01-14.029-23.549-14.029-23.549"/>
		<path style="fill:#615B4E;" d="M142.994,114.523l12.268,7.901c0,0-4.901,8.376-5.258,7.901l-13.426-10.04L142.994,114.523z"/>
		<path style="fill:#615B4E;" d="M163.43,114.226l-8.168,8.198c0,0,6.149,7.663,6.505,7.188c0.356-0.475,5.317-9.773,5.317-9.773
			L163.43,114.226z"/>
		<polyline style="fill:none;stroke:#3B3830;stroke-width:0.5;stroke-miterlimit:10;" points="136.578,120.286 150.123,130.682 
			155.391,123.276 161.648,130.088 166.876,120.424 		"/>
		<g>
			<path style="fill:#FFBD8F;" d="M170.29,84.446c0,0,1.009,25.728-13.303,28.379c-3.208,0.594-9.031-3.944-13.109-8.04
				c-1.183-1.188-2.051-4.028-2.139-5.703c0,0-2.518-11.294-1.952-16.56c1.343-12.5,8.43-16.825,16.273-16.813
				C163.595,65.72,168.454,66.717,170.29,84.446z"/>
		</g>
		<g>
			<path style="fill:#FFBD8F;" d="M136.437,96.907c1.999,2.423,5.122,3.148,6.975,1.62c1.853-1.529,1.734-4.733-0.264-7.156
				c-1.999-2.423-5.122-3.148-6.975-1.619C134.32,91.28,134.438,94.484,136.437,96.907z"/>
		</g>
		<g>
			<path style="fill:#FFBD8F;" d="M173.873,94.256c-1.201,2.903-3.974,4.512-6.194,3.594c-2.22-0.918-3.046-4.016-1.846-6.919
				c1.201-2.903,3.974-4.512,6.194-3.593C174.247,88.255,175.074,91.353,173.873,94.256z"/>
		</g>
		<path style="fill:#3B3830;" d="M139.878,89.24c0,0,16.448-5.239,21.929-18.875c0,0,2.86,15.38,8.413,16.756
			c0,0,2.209-18.301-8.203-22.257C146.175,58.843,128.432,73.576,139.878,89.24z"/>
		<path style="fill:#3B3830;" d="M143.799,77.536c0,0,0.317-26.931-14.892-20.595C121.28,60.119,108.629,79.754,143.799,77.536z"/>
		<g>
			<g>
				<path style="fill:#3B3830;" d="M152.771,92.284c-0.007,0.632-0.412,1.141-0.906,1.135c-0.493-0.005-0.887-0.522-0.88-1.155
					c0.007-0.632,0.412-1.141,0.906-1.135C152.384,91.135,152.778,91.652,152.771,92.284z"/>
			</g>
			<path style="fill:#615B4E;" d="M149.777,88.587c0,0,1.368-1.893,3.355-0.281"/>
		</g>
		<g>
			<g>
				<path style="fill:#3B3830;" d="M165.893,91.21c-0.007,0.632-0.412,1.141-0.906,1.135c-0.493-0.005-0.887-0.522-0.88-1.155
					c0.007-0.632,0.412-1.141,0.906-1.135C165.506,90.06,165.9,90.577,165.893,91.21z"/>
			</g>
			<path style="fill:#615B4E;" d="M162.899,87.513c0,0,1.368-1.893,3.355-0.281"/>
		</g>
		<path style="fill:none;stroke:#C27154;stroke-width:0.5;stroke-miterlimit:10;" d="M151.581,99.22c0,0,1.479,3.525,6.475,3.318"/>
		<path style="fill:none;stroke:#E06B43;stroke-width:0.5;stroke-miterlimit:10;" d="M139.67,72.041c0,0,0.564-11.852,3.535-8.881
			C146.175,66.13,139.67,72.041,139.67,72.041s3.059,2.376,7.218-0.594"/>
		<path style="fill:none;stroke:#E06B43;stroke-width:0.5;stroke-miterlimit:10;" d="M139.759,71.952c0,0-7.129-3.565-6.297-0.951
			C134.293,73.615,139.759,71.952,139.759,71.952s-0.743,3.951-5.465,4.366"/>
		<g>
			<path style="fill:none;stroke:#C27154;stroke-width:0.5;stroke-miterlimit:10;" d="M137.91,92.58c0,0,2.125,0.309,2.58,3.09"/>
			<path style="fill:none;stroke:#C27154;stroke-width:0.5;stroke-miterlimit:10;" d="M138.3,95.46c0,0,0-1.52,1.56-1.71"/>
		</g>
		<g>
			<path style="fill:none;stroke:#C27154;stroke-width:0.5;stroke-miterlimit:10;" d="M172.19,90.962c0,0-2.019,0.731-1.904,3.547"
				/>
			<path style="fill:none;stroke:#C27154;stroke-width:0.5;stroke-miterlimit:10;" d="M172.389,93.862c0,0-0.307-1.489-1.873-1.36"
				/>
		</g>
		<path style="fill:none;stroke:#C27154;stroke-width:0.5;stroke-miterlimit:10;" d="M160.23,91.86c0,0,1.56,2.498,1.59,3.212
			c0.03,0.714-1.86,2.248-2.34,2.248"/>
		
			<rect x="164.451" y="151.57" transform="matrix(0.9907 -0.1363 0.1363 0.9907 -19.3895 24.6208)" style="fill:#FFFFFF;" width="11.406" height="4.753"/>
		<g>
			<path style="fill:#7692C7;" d="M145.68,93.96c0,0,1.08,4.68-1.5,8.22c0,0,3.663,11.857,12.54,10.98
				c9.72-0.96,11.88-14.04,11.88-14.04s-1.365-3.66-0.48-6.42C168.12,92.7,162.84,97.2,145.68,93.96z"/>
			
				<line style="fill:none;stroke:#7692C7;stroke-width:0.5;stroke-miterlimit:10;" x1="139.62" y1="88.86" x2="146.355" y2="94.515"/>
			<line style="fill:none;stroke:#7692C7;stroke-width:0.5;stroke-miterlimit:10;" x1="141.66" y1="99.3" x2="144.66" y2="102.6"/>
			<line style="fill:none;stroke:#7692C7;stroke-width:0.5;stroke-miterlimit:10;" x1="170.22" y1="87.12" x2="167.46" y2="93.72"/>
		</g>
	</g>
	<path style="fill:none;stroke:#29211C;stroke-width:0.5;stroke-miterlimit:10;" d="M257.649,432.708"/>
	<g>
		<g>
			<path style="fill:#615B4E;" d="M353.432,279.24l0.742,11.725c0,0,20.928-7.646,32.145-6.626l4.589-28.553l-25.494-5.449
				L353.432,279.24z"/>
			<g>
				
					<rect x="346.048" y="176.89" transform="matrix(-1 -1.224647e-16 1.224647e-16 -1 793.5535 402.8405)" style="fill:#BD885E;" width="101.457" height="49.061"/>
				<polygon style="fill:#D9A86C;" points="346.048,176.886 447.505,176.886 449.297,175.7 347.84,175.7 				"/>
				<rect x="445.714" y="171.274" style="fill:#856042;" width="5.771" height="254.289"/>
				<rect x="343.729" y="171.274" style="fill:#856042;" width="5.771" height="254.289"/>
				<rect x="318.985" y="317.532" style="fill:#856042;" width="5.771" height="122.574"/>
				<rect x="427.848" y="317.532" style="fill:#856042;" width="5.771" height="122.574"/>
				<g>
					<g>
						<polygon style="fill:#D9A86C;" points="319.304,313.655 434.797,313.655 451.093,299.089 342.507,299.089 						"/>
						
							<rect x="319.304" y="313.655" transform="matrix(-1 -1.224647e-16 1.224647e-16 -1 754.1014 644.5337)" style="fill:#BD885E;" width="115.493" height="17.224"/>
					</g>
					<polygon style="fill:#856042;" points="434.797,313.655 451.093,299.089 450.964,315.454 434.797,330.879 					"/>
				</g>
			</g>
			<g>
				<g>
					<path style="fill:#3B3830;" d="M388.326,424.778c0,0,6.071,9.943,5.258,12.667c-0.785,2.633-4.599,3.637-6.05,5.829
						c-3.971,5.998-4.551,15.322-10.584,17.546c-7.069,2.606-15.646,0.62-16.252-0.765c-2.008-4.588,13.937-16.703,13.23-32.731
						L388.326,424.778z"/>
				</g>
				<g>
					<path style="fill:#FFBD8F;" d="M381.539,425.829c0,0-2.442,22.306-12.524,18.642c0,0,5.472-9.844,4.913-17.148L381.539,425.829
						z"/>
				</g>
			</g>
			<g>
				<g>
					<path style="fill:#E06B43;" d="M408.878,114.299c11.408,15.307,11.676,22.998,9.567,27.206c-1.087,2.17-3.094,3.987-2.99,7.175
						c0.165,5.031,5.361,6.523,7.474,11.062c3.349,7.192-2.312,19.305-10.165,24.217c-13.951,8.725-35.252-1.473-38.567-12.557
						c-1.469-4.912,1.771-6.115,2.392-16.443c0.786-13.088-4.155-15.525-2.392-25.113c0.328-1.786,2.752-14.966,13.753-19.134
						C398.049,106.885,407.787,113.53,408.878,114.299z"/>
					<path style="opacity:0.45;fill:#52415E;" d="M400.921,134.763c2.35,1.71,16.812,0.343,6.981,13.827
						c-4.699,6.444,9.436,12.279,7.383,22.016c-2.259,10.714-12.814,19.679-19.801,18.525c-6.973-1.152-9.592-15.519-10.471-20.338
						c-0.74-4.06-4.316-23.678,6.645-31.211C394.861,135.381,398.38,134.847,400.921,134.763z"/>
					<g>
						<path style="fill:#FFBD8F;" d="M359.309,192.37c0,0,0.12,37.62-0.24,38.16c-3.822,5.732-2.4,44.88-2.4,44.88l11.03-18.201
							l3.069-64.447L359.309,192.37z"/>
					</g>
					<path style="fill:#80B068;" d="M369.018,167.815c0,0-9.162,1.077-12.231,28.356c0,0,7.161,3.41,18.072,0.682L369.018,167.815z"
						/>
					<path style="fill:#80B068;" d="M422.189,168.579c0,0,12.642,4.618,13.025,37.48c0,0-1.534,6.905-22.249,2.301
						C412.965,208.361,402.445,182.285,422.189,168.579z"/>
					<path style="fill:#C4966C;" d="M398.907,151.102c0,0-1.331,9.316-12.507,9.467l0.654-3.503L398.907,151.102z"/>
					<g>
						<path style="fill:#FFBD8F;" d="M380.069,166.24c2.661-0.84,4.967-0.048,5.49-2.79c1.28-6.704,1.493-16.062-0.348-21.35
							l18.394-23.897c0,0-1.717,20.447-0.856,39.367c0.281,6.164,4.157,6.859,7.672,7.561c0,0-6.582,32.331-29.047,18.244
							c-0.097-0.057-0.191-0.119-0.282-0.185C376.593,180.296,375.528,167.672,380.069,166.24z"/>
					</g>
					<path style="opacity:0.35;fill:#52415E;" d="M385.206,153.916c0.427-4.103,0.383-8.021-0.738-11.304l18.049-23.903
						c0,0-0.546,18.34,0.169,36.625c-2.337,2.459-7.645,4.76-10.915,4.551C387.567,159.618,387.174,156.736,385.206,153.916z"/>
					<g>
						<path style="fill:#FFBD8F;" d="M378.42,131.295c0,0-0.965,24.608,12.724,27.143c3.068,0.568,8.638-3.772,12.538-7.69
							c1.132-1.137,1.961-3.853,2.045-5.455c0,0,2.408-10.802,1.867-15.839c-1.285-11.956-8.063-16.093-15.565-16.081
							C384.824,113.385,380.176,114.339,378.42,131.295z"/>
					</g>
					<g>
						<path style="fill:#FFBD8F;" d="M410.799,143.214c-1.912,2.318-4.899,3.011-6.671,1.549c-1.772-1.462-1.659-4.527,0.253-6.844
							c1.912-2.317,4.899-3.011,6.671-1.549C412.824,137.832,412.711,140.896,410.799,143.214z"/>
					</g>
					<g>
						<path style="fill:#FFBD8F;" d="M374.994,139.702c1.148,2.777,3.8,4.315,5.924,3.437c2.123-0.878,2.913-3.841,1.765-6.618
							c-1.149-2.776-3.801-4.315-5.924-3.437C374.635,133.963,373.845,136.926,374.994,139.702z"/>
					</g>
					<g>
						<g>
							<path style="fill:#3B3830;" d="M394.534,137.463c0.007,0.605,0.395,1.091,0.866,1.086c0.471-0.005,0.848-0.5,0.842-1.105
								c-0.007-0.605-0.395-1.091-0.866-1.086C394.904,136.363,394.527,136.858,394.534,137.463z"/>
						</g>
						<path style="fill:#856042;" d="M397.784,135.166c0,0-0.827-2.076-3.046-1.044"/>
					</g>
					<g>
						<g>
							<path style="fill:#3B3830;" d="M382.456,136.334c0.007,0.605,0.395,1.091,0.866,1.086c0.471-0.005,0.848-0.5,0.842-1.105
								c-0.007-0.605-0.395-1.091-0.866-1.086C382.826,135.235,382.449,135.73,382.456,136.334z"/>
						</g>
						<path style="fill:#856042;" d="M385.279,133.557c0,0-0.941-2.026-3.1-0.872"/>
					</g>
					<path style="fill:none;stroke:#C27154;stroke-width:0.5;stroke-miterlimit:10;" d="M396.924,143.171
						c0,0-1.414,3.372-6.193,3.174"/>
					<g>
						<path style="fill:#FF8861;" d="M396.008,140.309c0,0.856,1.13,1.549,2.525,1.549c1.395,0,2.525-0.694,2.525-1.549
							c0-0.856-1.13-1.549-2.525-1.549C397.138,138.759,396.008,139.453,396.008,140.309z"/>
					</g>
					<g>
						<path style="fill:#FF8861;" d="M379.871,139.295c0,0.705,0.931,1.277,2.08,1.277c1.149,0,2.08-0.572,2.08-1.277
							c0-0.705-0.931-1.277-2.08-1.277C380.802,138.018,379.871,138.59,379.871,139.295z"/>
					</g>
					<g>
						<path style="fill:none;stroke:#C27154;stroke-width:0.5;stroke-miterlimit:10;" d="M409.39,139.075
							c0,0-2.032,0.296-2.468,2.955"/>
						<path style="fill:none;stroke:#C27154;stroke-width:0.5;stroke-miterlimit:10;" d="M409.017,141.83c0,0,0-1.454-1.492-1.635"
							/>
					</g>
					<g>
						<path style="fill:none;stroke:#C27154;stroke-width:0.5;stroke-miterlimit:10;" d="M376.603,136.552
							c0,0,1.931,0.699,1.821,3.393"/>
						<path style="fill:none;stroke:#C27154;stroke-width:0.5;stroke-miterlimit:10;" d="M376.413,139.326
							c0,0,0.293-1.424,1.791-1.301"/>
					</g>
					<path style="fill:none;stroke:#C27154;stroke-width:0.5;stroke-miterlimit:10;" d="M387.585,137.701
						c0,0-1.492,2.389-1.521,3.072c-0.029,0.683,1.779,2.15,2.238,2.15"/>
					<path style="fill:#E06B43;" d="M379.666,116.725c4.075-5.516,9.433-8.595,18.647-6.581
						c9.214,2.013,17.707,10.271,14.381,18.403c-3.526,8.622-5.454,9.11-5.454,9.11s-13.86-3.093-17.184-21.115
						c-2.793,8.808-9.963,16.636-11.517,18.007C378.539,134.549,375.592,122.241,379.666,116.725z"/>
					<path style="fill:none;stroke:#E06B43;stroke-width:0.5;stroke-miterlimit:10;" d="M390.605,113.983
						c0,0-4.113,10.969,4.296,17.55"/>
					<path style="fill:#80B068;" d="M367.357,197.944c1.118-1.955,1.648-30.124,1.661-30.129c2.022-0.643,2.412-0.572,4.522-0.789
						c2.184-0.224,4.616-0.697,8.148-1.147c0,0-5.89,14.393,6.631,16.038c12.057,0.775,21.968-16.849,21.968-16.849
						c4.386,1.172,13.474,2.774,12.855,4.828c-7.833,25.979-3.005,32.757-5.901,46.208c-0.101,0.471-2.234,8.397-2.434,8.835
						c0,0,2.004,14.337,4.015,26.768c1.858,11.487-25.461,22.138-51.559,4.375c-6.565-4.468-0.061-2.399-0.185-21.84
						c-0.018-2.832-0.554-13.78-0.554-13.78C363.84,215.7,361.32,208.5,367.357,197.944z"/>
					
						<line style="fill:none;stroke:#468759;stroke-width:0.5;stroke-miterlimit:10;" x1="418.297" y1="209.242" x2="420.26" y2="184.374"/>
					
						<line style="fill:none;stroke:#468759;stroke-width:0.5;stroke-miterlimit:10;" x1="368.556" y1="183.55" x2="367.357" y2="197.944"/>
				</g>
				<g>
					<path style="fill:#FFBD8F;" d="M390.023,244.185l-0.031-6.148c0,0,23.895-6.191,26.024-7.217
						c-0.06-4.913,0.848-12.876,2.231-21.426c0,0,8.847,0.764,16.461-2.467c0,0-4.45,34.064-8.655,36.033
						C421.135,245.262,390.023,244.185,390.023,244.185z"/>
				</g>
			</g>
			<path style="fill:#615B4E;" d="M364.139,252.376l-10.707,26.864c0,0,21.415,2.295,23.327,15.679l20.65,2.677
				c0,0,15.679-17.973,34.417-22.944l-13.384-24.474C418.441,250.178,402.762,262.319,364.139,252.376z"/>
			<polygon style="fill:#3B3830;" points="354.579,289.757 368.346,275.225 384.534,273.887 406.969,262.414 411.048,288.418 			"/>
			<g>
				<path style="fill:#615B4E;" d="M418.441,250.178c0,0,20.65,27.533,16.061,47.418c-4.589,19.885-68.451,23.327-68.451,23.327
					s-3.824-17.591-16.061-24.474l49.713-24.092L418.441,250.178z"/>
				<path style="fill:#615B4E;" d="M349.99,296.449l-7.397,8.795c0,0-3.521,7.512,2.009,17.336
					c1.334,2.37,3.097,24.734,8.037,43.084c7.814,29.03,19.596,58.609,19.948,63.607l16.791-3.442c0,0-4.258-24.44-6.315-51.752
					c-1.71-22.704,1.714-44.467-4.018-55.576C366.416,294.027,349.99,296.449,349.99,296.449z"/>
				<path style="fill:#3B3830;" d="M383.124,312.382c-7.452-14.44-16.222-19.514-22.163-21.25l-10.824,5.245
					c5.951,20.21,20.476,47.173,32.462,67.52c-0.396-18.084,1.174-34.574-2.997-44.212c1.797-0.211,3.717-0.455,5.722-0.734
					C384.808,316.486,384.101,314.276,383.124,312.382z"/>
			</g>
			<path style="fill:#615B4E;" d="M354.174,290.965c0,0-1.252-15.548,17.869-16.058c8.799-0.235,13.723,4.987,15.845,11.971
				c2.122,6.985,31.482,104.011,31.482,104.011l-12.19,7.165C407.18,398.054,359.153,325.852,354.174,290.965z"/>
			<path style="fill:#3B3830;" d="M407.18,398.054c0,0,3.167,16.431,6.991,23.314c3.824,6.883,13.193,14.34,17.782,14.34
				s5.927-14.149,2.103-22.944c-3.824-8.795-14.687-21.875-14.687-21.875L407.18,398.054z"/>
			<g>
				<path style="fill:#FFBD8F;" d="M408.817,397.085l9.178-5.354c0,0,10.516,18.738,6.31,21.606
					C420.051,416.238,418.186,415.823,408.817,397.085z"/>
			</g>
			<path style="fill:none;stroke:#3B3830;stroke-width:0.75;stroke-miterlimit:10;" d="M384.152,278.986
				c0,0,9.178,15.934,13.002,37.731"/>
			<path style="fill:none;stroke:#3B3830;stroke-width:0.75;stroke-miterlimit:10;" d="M344.602,322.58c0,0,3.476,4.589,6.025,5.099
				"/>
			<path style="fill:none;stroke:#3B3830;stroke-width:0.75;stroke-miterlimit:10;" d="M358.275,295.047
				c0,0,7.903,2.804,11.345-2.932"/>
			<path style="fill:none;stroke:#C27154;stroke-width:0.5;stroke-miterlimit:10;" d="M416.016,230.82c0,0,4.396-0.432,8.716,4.607"
				/>
			<path style="fill:none;stroke:#468759;stroke-width:0.5;stroke-miterlimit:10;" d="M373.8,222.12c0,0,19.74,5.76,37.2-4.32"/>
		</g>
		<g>
			<g>
				<g>
					<polygon style="fill:#D9A86C;" points="283.975,468.761 318.834,468.761 323.752,462.54 290.978,462.54 					"/>
					
						<rect x="283.975" y="468.761" transform="matrix(-1 -1.224647e-16 1.224647e-16 -1 602.8084 944.8787)" style="fill:#BD885E;" width="34.859" height="7.357"/>
				</g>
				<polygon style="fill:#856042;" points="318.834,468.761 323.752,462.54 323.713,469.53 318.834,476.118 				"/>
			</g>
			<rect x="296.424" y="260.22" style="fill:#BB885D;" width="15.839" height="205.658"/>
			<rect x="296.424" y="260.22" style="fill:#856042;" width="15.839" height="143.644"/>
			<polygon style="fill:#B8A69C;" points="251.547,380.106 258.347,366.504 240.114,374.239 			"/>
			<g>
				<polygon style="fill:#BD885E;" points="410.552,255.747 202.084,255.747 220.446,243.952 423.95,243.952 				"/>
				<rect x="202.084" y="255.747" style="fill:#856042;" width="208.469" height="13.522"/>
				<polygon style="fill:#856042;" points="423.95,257.473 410.446,269.269 410.446,255.747 423.95,243.952 				"/>
				<path style="fill:#E8E1CF;" d="M202.086,255.745v121.692c0,0,83.684,10.802,60.683-1.289c-9.146-4.808,14.864,9.85,78.047,8.18
					c102.655-2.713,41.814-3.207,83.766-12.416l-0.629-127.962H220.448L202.086,255.745z"/>
				<polygon style="fill:#FFFFFF;" points="410.552,255.747 202.084,255.747 220.446,243.952 423.95,243.952 				"/>
				<path style="fill:none;stroke:#B8A69C;stroke-width:0.5;stroke-miterlimit:10;" d="M410.363,258.648
					c0,0-9.617,124.316-42.648,105.53"/>
				<path style="fill:none;stroke:#B8A69C;stroke-width:0.5;stroke-miterlimit:10;" d="M203.394,258.095
					c0,0,27.178,130.394,53.938,100.005"/>
				<path style="fill:none;stroke:#B8A69C;stroke-width:0.5;stroke-miterlimit:10;" d="M220.955,261.963
					c0,0,19.233,49.174,55.192,57.461"/>
				<path style="fill:none;stroke:#B8A69C;stroke-width:0.5;stroke-miterlimit:10;" d="M403.673,328.265c0,0,1.672,39.228,0,45.859"
					/>
				<path style="fill:none;stroke:#B8A69C;stroke-width:0.5;stroke-miterlimit:10;" d="M399.074,269.698
					c0,0-52.683,111.608-103.276,92.27"/>
				<path style="fill:none;stroke:#B8A69C;stroke-width:0.5;stroke-miterlimit:10;" d="M252.732,263.068
					c0,0,45.993,87.297,115.401,7.183"/>
				<path style="fill:none;stroke:#B8A69C;stroke-width:0.5;stroke-miterlimit:10;" d="M414.544,258.095
					c0,0-2.927,97.795,3.763,107.188"/>
				<path style="fill:none;stroke:#B8A69C;stroke-width:0.5;stroke-miterlimit:10;" d="M203.812,277.986
					c0,0,16.725,75.694,5.436,93.375"/>
			</g>
		</g>
		<g>
			<g>
				<path style="fill:#FFBD8F;" d="M390.18,237.99l-13.56,1.65c0,0-5.46,3.54-11.04,3.81c-2.697,0.131-2.16,1.485,1.44,2.025
					c3.6,0.54,9.54-0.135,9.54-0.135s2.88,0.36,4.14,0.54c1.26,0.18,12.42-0.54,10.14-2.64L390.18,237.99z"/>
			</g>
			<path style="fill:#FFBD8F;" d="M379.905,239.985c0,0-14.04,1.8-15.75,1.89s-1.71,1.44,2.52,2.16
				C370.905,244.755,379.905,239.985,379.905,239.985z"/>
			<path style="fill:#FFBD8F;" d="M382.665,239.13c0,0-14.04,1.8-15.75,1.89c-1.71,0.09-1.71,1.44,2.52,2.16
				C373.665,243.9,382.665,239.13,382.665,239.13z"/>
			<path style="fill:#FFBD8F;" d="M379.35,242.82c0,0-10.71,2.07-11.61,2.25c-0.9,0.18-0.72,1.71,3.42,1.53
				c4.14-0.18,9.54-1.8,9.54-1.8L379.35,242.82z"/>
			<path style="fill:none;stroke:#C27154;stroke-width:0.5;stroke-miterlimit:10;" d="M367.425,244.845c0,0,6.075-0.405,8.715-1.485
				"/>
			<path style="fill:none;stroke:#C27154;stroke-width:0.5;stroke-miterlimit:10;" d="M364.995,243.405c0,0,5.394-0.763,8.37-1.755
				c0.135-0.045,2.361-0.896,3.195-1.845"/>
		</g>
	</g>
	<path style="fill:#856042;" d="M127.68,78.96"/>
	<g>
		<g>
			<path style="fill:#B5A792;" d="M255.499,219.689l9,27.461l-10.17-0.283C254.329,246.868,254.995,219.156,255.499,219.689z"/>
			<polygon style="fill:#C4B99E;" points="253.99,250.182 227.046,249.434 237.66,212.755 264.603,213.503 			"/>
			<polygon style="fill:#FFFFFF;" points="252.419,248.321 228.843,247.666 238.753,214.343 262.329,214.998 			"/>
			<polygon style="fill:#E8E1CF;" points="250.15,246.095 231.232,245.569 233.227,238.801 252.144,239.327 			"/>
			<polygon style="fill:#E8E1CF;" points="256.897,223.593 237.98,223.068 239.974,216.3 258.892,216.826 			"/>
		</g>
		<polygon style="fill:#E8E1CF;" points="252.848,237.168 244.772,236.944 248.167,225.529 256.243,225.753 		"/>
		<polygon style="fill:#E8E1CF;" points="241.936,236.745 233.86,236.521 237.255,225.106 245.33,225.33 		"/>
		
			<text transform="matrix(0.906 0.0252 -0.4476 0.8942 239.827 221.0383)" style="fill:#FFFFFF; font-family:'NexaRustScriptL-0'; font-size:5.4263px;">Specials</text>
	</g>
</g>
</svg>
